solid
facet normal -1 0 0
outer loop
vertex 0 20 20
vertex 0 20 0
vertex 0 0 20
endloop
endfacet
facet normal -1 0 0
outer loop
vertex 0 20 0
vertex 0 0 0
vertex 0 0 20
endloop
endfacet
facet normal 0 -1 4.65392e-18
outer loop
vertex 5.04034 1.71304e-17 3.68085
vertex 0 0 0
vertex 6.6528 1.71304e-17 3.68085
endloop
endfacet
facet normal 0 -1 4.65392e-18
outer loop
vertex 6.6528 1.71304e-17 3.68085
vertex 0 0 0
vertex 12.5352 1.71304e-17 3.68085
endloop
endfacet
facet normal 0 -1 -4.31875e-18
outer loop
vertex 6.6528 1.71304e-17 3.68085
vertex 12.5352 1.71304e-17 3.68085
vertex 9.55309 -4.01155e-18 8.57623
endloop
endfacet
facet normal -2.16043e-17 -1 -3.91596e-17
outer loop
vertex 14.3167 -2.13588e-17 3.68087
vertex 12.5352 1.71304e-17 3.68085
vertex 20 0 0
endloop
endfacet
facet normal 0 -1 4.65392e-18
outer loop
vertex 12.5352 1.71304e-17 3.68085
vertex 0 0 0
vertex 20 0 0
endloop
endfacet
facet normal 1.18986e-17 -1 0
outer loop
vertex 0 0 20
vertex 0 0 0
vertex 5.25763 6.25585e-17 15.9857
endloop
endfacet
facet normal -7.21674e-18 -1 3.81931e-18
outer loop
vertex 5.04034 1.71304e-17 3.68085
vertex 8.58559 1.59378e-17 10.0675
vertex 5.25763 6.25585e-17 15.9857
endloop
endfacet
facet normal 7.11737e-19 -1 3.67931e-18
outer loop
vertex 0 0 0
vertex 5.04034 1.71304e-17 3.68085
vertex 5.25763 6.25585e-17 15.9857
endloop
endfacet
facet normal -8.109e-17 -1 -1.2179e-16
outer loop
vertex 0 0 20
vertex 5.25763 6.25585e-17 15.9857
vertex 6.90491 -7.17742e-17 15.9919
endloop
endfacet
facet normal -0 -1 -1.40663e-17
outer loop
vertex 6.90491 -7.17742e-17 15.9919
vertex 9.53519 -6.28837e-18 11.3364
vertex 12.4739 -7.17742e-17 15.9919
endloop
endfacet
facet normal 0 -1 1.79074e-17
outer loop
vertex 0 0 20
vertex 6.90491 -7.17742e-17 15.9919
vertex 12.4739 -7.17742e-17 15.9919
endloop
endfacet
facet normal 1.86579e-17 -1 1.08736e-17
outer loop
vertex 10.3075 -2.72135e-17 10.0219
vertex 14.3167 -2.13588e-17 3.68087
vertex 14.1008 1.08095e-16 15.9567
endloop
endfacet
facet normal 1.07101e-17 -1 1.07338e-17
outer loop
vertex 14.3167 -2.13588e-17 3.68087
vertex 20 0 0
vertex 14.1008 1.08095e-16 15.9567
endloop
endfacet
facet normal 1.06607e-16 -1 -1.82272e-16
outer loop
vertex 12.4739 -7.17742e-17 15.9919
vertex 14.1008 1.08095e-16 15.9567
vertex 20 0 20
endloop
endfacet
facet normal -1.83238e-17 -1 -0
outer loop
vertex 14.1008 1.08095e-16 15.9567
vertex 20 0 0
vertex 20 0 20
endloop
endfacet
facet normal 0 -1 1.79074e-17
outer loop
vertex 0 0 20
vertex 12.4739 -7.17742e-17 15.9919
vertex 20 0 20
endloop
endfacet
facet normal 0 -0 1
outer loop
vertex 6.32219 4.42724 20
vertex 0 0 20
vertex 6.32219 4.00707 20
endloop
endfacet
facet normal -0 0 1
outer loop
vertex 20 0 20
vertex 14.1122 4.00707 20
vertex 6.32219 4.00707 20
endloop
endfacet
facet normal -0 0 1
outer loop
vertex 20 0 20
vertex 14.1122 5.51969 20
vertex 14.1122 4.00707 20
endloop
endfacet
facet normal 0 0 1
outer loop
vertex 20 0 20
vertex 6.32219 4.00707 20
vertex 0 0 20
endloop
endfacet
facet normal 0 0 1
outer loop
vertex 6.40622 14.8055 20
vertex 0 20 20
vertex 0 0 20
endloop
endfacet
facet normal 0 -0 1
outer loop
vertex 6.40622 14.8055 20
vertex 0 0 20
vertex 6.32219 4.42724 20
endloop
endfacet
facet normal 0 -0 1
outer loop
vertex 6.40622 16.3181 20
vertex 0 20 20
vertex 6.40622 14.8055 20
endloop
endfacet
facet normal 0 0 1
outer loop
vertex 20 20 20
vertex 13.9273 16.3181 20
vertex 13.9273 15.8979 20
endloop
endfacet
facet normal 0 -0 1
outer loop
vertex 20 20 20
vertex 14.1122 5.51969 20
vertex 20 0 20
endloop
endfacet
facet normal 0 -0 1
outer loop
vertex 20 20 20
vertex 13.9273 15.8979 20
vertex 14.1122 5.51969 20
endloop
endfacet
facet normal 0 -0 1
outer loop
vertex 20 20 20
vertex 0 20 20
vertex 6.40622 16.3181 20
endloop
endfacet
facet normal 0 -0 1
outer loop
vertex 20 20 20
vertex 6.40622 16.3181 20
vertex 13.9273 16.3181 20
endloop
endfacet
facet normal 0 0 1
outer loop
vertex 13.9273 15.8979 20
vertex 8.61633 5.51969 20
vertex 14.1122 5.51969 20
endloop
endfacet
facet normal -0 0 1
outer loop
vertex 6.32219 4.42724 20
vertex 11.6164 14.8055 20
vertex 6.40622 14.8055 20
endloop
endfacet
facet normal 0 1 0
outer loop
vertex 20 20 20
vertex 20 20 0
vertex 0 20 0
endloop
endfacet
facet normal -0 1 0
outer loop
vertex 20 20 20
vertex 0 20 0
vertex 0 20 20
endloop
endfacet
facet normal -0 0 -1
outer loop
vertex 0 0 0
vertex 0 20 0
vertex 20 20 0
endloop
endfacet
facet normal 0 -0 -1
outer loop
vertex 20 0 0
vertex 0 0 0
vertex 20 20 0
endloop
endfacet
facet normal 1 0 0
outer loop
vertex 20 10.4509 9.22981
vertex 20 10.5106 3.71746
vertex 20 20 0
endloop
endfacet
facet normal 1 -0 0
outer loop
vertex 20 0 0
vertex 20 10.5106 3.71746
vertex 20 8.83 3.69927
endloop
endfacet
facet normal 1 0 0
outer loop
vertex 20 0 0
vertex 20 20 0
vertex 20 10.5106 3.71746
endloop
endfacet
facet normal 1 0 0
outer loop
vertex 20 8.77033 9.21162
vertex 20 0 0
vertex 20 8.83 3.69927
endloop
endfacet
facet normal 1 0 0
outer loop
vertex 20 14.3267 16.0706
vertex 20 20 0
vertex 20 20 20
endloop
endfacet
facet normal 1 0 0
outer loop
vertex 20 14.3267 16.0706
vertex 20 10.4509 9.22981
vertex 20 20 0
endloop
endfacet
facet normal 1 0 0
outer loop
vertex 20 12.5957 16.0518
vertex 20 14.3267 16.0706
vertex 20 20 20
endloop
endfacet
facet normal 1 0 0
outer loop
vertex 20 6.46155 15.9854
vertex 20 9.58685 10.6407
vertex 20 12.5957 16.0518
endloop
endfacet
facet normal 1 0 0
outer loop
vertex 20 4.73054 15.9667
vertex 20 0 0
vertex 20 8.77033 9.21162
endloop
endfacet
facet normal 1 0 0
outer loop
vertex 20 0 20
vertex 20 4.73054 15.9667
vertex 20 6.46155 15.9854
endloop
endfacet
facet normal 1 0 0
outer loop
vertex 20 0 20
vertex 20 6.46155 15.9854
vertex 20 12.5957 16.0518
endloop
endfacet
facet normal 1 0 0
outer loop
vertex 20 0 20
vertex 20 12.5957 16.0518
vertex 20 20 20
endloop
endfacet
facet normal 1 0 0
outer loop
vertex 20 0 20
vertex 20 0 0
vertex 20 4.73054 15.9667
endloop
endfacet
facet normal -0.842589 0.000448362 0.538557
outer loop
vertex 14.1008 1.08095e-16 15.9567
vertex 14.1008 1.90157 15.9551
vertex 10.3075 -2.72135e-17 10.0219
endloop
endfacet
facet normal -0.842589 0.000448446 0.538557
outer loop
vertex 10.3075 -2.72135e-17 10.0219
vertex 14.1008 1.90157 15.9551
vertex 10.3075 1.89663 10.0203
endloop
endfacet
facet normal -0.845224 -0.000444995 -0.534412
outer loop
vertex 10.3075 -2.72135e-17 10.0219
vertex 10.3075 1.89663 10.0203
vertex 14.3167 -2.13588e-17 3.68087
endloop
endfacet
facet normal -0.845224 -0.00044489 -0.534412
outer loop
vertex 14.3167 -2.13588e-17 3.68087
vertex 10.3075 1.89663 10.0203
vertex 14.3167 1.89135 3.67929
endloop
endfacet
facet normal -8.56501e-06 0.000832483 1
outer loop
vertex 12.5352 1.71304e-17 3.68085
vertex 14.3167 -2.13588e-17 3.68087
vertex 14.3167 1.89135 3.67929
endloop
endfacet
facet normal -8.56501e-06 0.000832483 1
outer loop
vertex 12.5352 1.71304e-17 3.68085
vertex 14.3167 1.89135 3.67929
vertex 12.5352 1.89135 3.67928
endloop
endfacet
facet normal 0.854017 0.000432949 0.520244
outer loop
vertex 9.55309 -4.01155e-18 8.57623
vertex 12.5352 1.71304e-17 3.68085
vertex 9.55309 1.89542 8.57466
endloop
endfacet
facet normal 0.854017 0.000433095 0.520244
outer loop
vertex 12.5352 1.71304e-17 3.68085
vertex 12.5352 1.89135 3.67928
vertex 9.55309 1.89542 8.57466
endloop
endfacet
facet normal -0.860344 0.000424185 0.509714
outer loop
vertex 9.55309 -4.01155e-18 8.57623
vertex 9.55309 1.89542 8.57466
vertex 6.6528 1.71304e-17 3.68085
endloop
endfacet
facet normal -0.860344 0.000424328 0.509714
outer loop
vertex 6.6528 1.71304e-17 3.68085
vertex 9.55309 1.89542 8.57466
vertex 6.6528 1.89135 3.67928
endloop
endfacet
facet normal 0 0.000832483 1
outer loop
vertex 5.04034 1.71304e-17 3.68085
vertex 6.6528 1.71304e-17 3.68085
vertex 5.04034 1.89135 3.67928
endloop
endfacet
facet normal -0 0.000832483 1
outer loop
vertex 6.6528 1.71304e-17 3.68085
vertex 6.6528 1.89135 3.67928
vertex 5.04034 1.89135 3.67928
endloop
endfacet
facet normal 0.874324 -0.000404127 -0.485342
outer loop
vertex 8.58559 1.59378e-17 10.0675
vertex 5.04034 1.71304e-17 3.68085
vertex 8.58559 1.89666 10.0659
endloop
endfacet
facet normal 0.874324 -0.000404039 -0.485342
outer loop
vertex 5.04034 1.71304e-17 3.68085
vertex 5.04034 1.89135 3.67928
vertex 8.58559 1.89666 10.0659
endloop
endfacet
facet normal 0.871641 0.000408051 0.490144
outer loop
vertex 5.25763 6.25585e-17 15.9857
vertex 8.58559 1.59378e-17 10.0675
vertex 5.25763 1.90159 15.9841
endloop
endfacet
facet normal 0.871641 0.000408126 0.490144
outer loop
vertex 8.58559 1.59378e-17 10.0675
vertex 8.58559 1.89666 10.0659
vertex 5.25763 1.90159 15.9841
endloop
endfacet
facet normal 0.00376075 -0.000832504 -0.999993
outer loop
vertex 6.90491 -7.17742e-17 15.9919
vertex 5.25763 6.25585e-17 15.9857
vertex 6.90491 1.9016 15.9903
endloop
endfacet
facet normal 0.00376076 -0.000832507 -0.999993
outer loop
vertex 5.25763 6.25585e-17 15.9857
vertex 5.25763 1.90159 15.9841
vertex 6.90491 1.9016 15.9903
endloop
endfacet
facet normal -0.870651 -0.000409513 -0.491902
outer loop
vertex 6.90491 -7.17742e-17 15.9919
vertex 6.90491 1.9016 15.9903
vertex 9.53519 -6.28837e-18 11.3364
endloop
endfacet
facet normal -0.870651 -0.000409361 -0.491902
outer loop
vertex 9.53519 -6.28837e-18 11.3364
vertex 6.90491 1.9016 15.9903
vertex 9.53519 1.89772 11.3348
endloop
endfacet
facet normal 0.845621 -0.000444381 -0.533784
outer loop
vertex 12.4739 -7.17742e-17 15.9919
vertex 9.53519 -6.28837e-18 11.3364
vertex 12.4739 1.9016 15.9903
endloop
endfacet
facet normal 0.845621 -0.000444215 -0.533784
outer loop
vertex 9.53519 -6.28837e-18 11.3364
vertex 9.53519 1.89772 11.3348
vertex 12.4739 1.9016 15.9903
endloop
endfacet
facet normal -0.0216647 -0.000832315 -0.999765
outer loop
vertex 14.1008 1.08095e-16 15.9567
vertex 12.4739 -7.17742e-17 15.9919
vertex 12.4739 1.9016 15.9903
endloop
endfacet
facet normal -0.0216647 -0.000832328 -0.999765
outer loop
vertex 14.1008 1.08095e-16 15.9567
vertex 12.4739 1.9016 15.9903
vertex 14.1008 1.90157 15.9551
endloop
endfacet
facet normal -0.890207 0.455556 0
outer loop
vertex 13.9273 15.8979 20
vertex 13.9273 15.8979 18
vertex 8.61633 5.51969 20
endloop
endfacet
facet normal -0.890207 0.455556 0
outer loop
vertex 8.61633 5.51969 20
vertex 13.9273 15.8979 18
vertex 8.61633 5.51969 18
endloop
endfacet
facet normal -1 0 0
outer loop
vertex 13.9273 15.8979 20
vertex 13.9273 16.3181 20
vertex 13.9273 16.3181 18
endloop
endfacet
facet normal -1 0 0
outer loop
vertex 13.9273 15.8979 20
vertex 13.9273 16.3181 18
vertex 13.9273 15.8979 18
endloop
endfacet
facet normal -0 -1 0
outer loop
vertex 6.40622 16.3181 20
vertex 6.40622 16.3181 18
vertex 13.9273 16.3181 20
endloop
endfacet
facet normal 0 -1 0
outer loop
vertex 13.9273 16.3181 20
vertex 6.40622 16.3181 18
vertex 13.9273 16.3181 18
endloop
endfacet
facet normal 1 0 0
outer loop
vertex 6.40622 14.8055 20
vertex 6.40622 14.8055 18
vertex 6.40622 16.3181 18
endloop
endfacet
facet normal 1 0 -0
outer loop
vertex 6.40622 16.3181 20
vertex 6.40622 14.8055 20
vertex 6.40622 16.3181 18
endloop
endfacet
facet normal 0 1 0
outer loop
vertex 11.6164 14.8055 20
vertex 11.6164 14.8055 18
vertex 6.40622 14.8055 18
endloop
endfacet
facet normal 0 1 0
outer loop
vertex 6.40622 14.8055 20
vertex 11.6164 14.8055 20
vertex 6.40622 14.8055 18
endloop
endfacet
facet normal 0.890792 -0.454412 0
outer loop
vertex 6.32219 4.42724 20
vertex 6.32219 4.42724 18
vertex 11.6164 14.8055 20
endloop
endfacet
facet normal 0.890792 -0.454412 0
outer loop
vertex 11.6164 14.8055 20
vertex 6.32219 4.42724 18
vertex 11.6164 14.8055 18
endloop
endfacet
facet normal 1 0 0
outer loop
vertex 6.32219 4.42724 20
vertex 6.32219 4.00707 20
vertex 6.32219 4.00707 18
endloop
endfacet
facet normal 1 0 -0
outer loop
vertex 6.32219 4.42724 20
vertex 6.32219 4.00707 18
vertex 6.32219 4.42724 18
endloop
endfacet
facet normal 0 1 0
outer loop
vertex 14.1122 4.00707 20
vertex 14.1122 4.00707 18
vertex 6.32219 4.00707 18
endloop
endfacet
facet normal 0 1 0
outer loop
vertex 6.32219 4.00707 20
vertex 14.1122 4.00707 20
vertex 6.32219 4.00707 18
endloop
endfacet
facet normal -1 0 0
outer loop
vertex 14.1122 5.51969 20
vertex 14.1122 5.51969 18
vertex 14.1122 4.00707 18
endloop
endfacet
facet normal -1 0 0
outer loop
vertex 14.1122 4.00707 20
vertex 14.1122 5.51969 20
vertex 14.1122 4.00707 18
endloop
endfacet
facet normal -0 -1 0
outer loop
vertex 8.61633 5.51969 20
vertex 8.61633 5.51969 18
vertex 14.1122 5.51969 20
endloop
endfacet
facet normal 0 -1 0
outer loop
vertex 14.1122 5.51969 20
vertex 8.61633 5.51969 18
vertex 14.1122 5.51969 18
endloop
endfacet
facet normal 0.00114516 -0.870056 0.492952
outer loop
vertex 20 10.4509 9.22981
vertex 20 14.3267 16.0706
vertex 18.0623 10.4501 9.23279
endloop
endfacet
facet normal 0.00114483 -0.870056 0.492952
outer loop
vertex 20 14.3267 16.0706
vertex 18.0711 14.3259 16.0735
vertex 18.0623 10.4501 9.23279
endloop
endfacet
facet normal -0.00154433 0.0108241 -0.99994
outer loop
vertex 20 14.3267 16.0706
vertex 20 12.5957 16.0518
vertex 18.0711 14.3259 16.0735
endloop
endfacet
facet normal -0.00154393 0.0108246 -0.99994
outer loop
vertex 20 12.5957 16.0518
vertex 18.0719 12.5949 16.0548
vertex 18.0711 14.3259 16.0735
endloop
endfacet
facet normal -0.0011356 0.873972 -0.485975
outer loop
vertex 20 9.58685 10.6407
vertex 18.0649 9.58599 10.6437
vertex 20 12.5957 16.0518
endloop
endfacet
facet normal -0.00113578 0.873972 -0.485975
outer loop
vertex 20 12.5957 16.0518
vertex 18.0649 9.58599 10.6437
vertex 18.0719 12.5949 16.0548
endloop
endfacet
facet normal -0.000394015 -0.863247 -0.504781
outer loop
vertex 20 9.58685 10.6407
vertex 20 6.46155 15.9854
vertex 18.0649 9.58599 10.6437
endloop
endfacet
facet normal -0.000394156 -0.863247 -0.504781
outer loop
vertex 20 6.46155 15.9854
vertex 18.0745 6.4607 15.9884
vertex 18.0649 9.58599 10.6437
endloop
endfacet
facet normal -0.00154405 0.0108241 -0.99994
outer loop
vertex 20 6.46155 15.9854
vertex 20 4.73054 15.9667
vertex 18.0745 6.4607 15.9884
endloop
endfacet
facet normal -0.00154414 0.010824 -0.99994
outer loop
vertex 20 4.73054 15.9667
vertex 18.0752 4.72969 15.9696
vertex 18.0745 6.4607 15.9884
endloop
endfacet
facet normal 0.000409483 0.858235 0.513257
outer loop
vertex 20 8.77033 9.21162
vertex 18.063 8.76947 9.2146
vertex 20 4.73054 15.9667
endloop
endfacet
facet normal 0.000409542 0.858235 0.513257
outer loop
vertex 20 4.73054 15.9667
vertex 18.063 8.76947 9.2146
vertex 18.0752 4.72969 15.9696
endloop
endfacet
facet normal -0.000426941 0.999941 0.0108244
outer loop
vertex 20 8.83 3.69927
vertex 18.0545 8.82913 3.70227
vertex 20 8.77033 9.21162
endloop
endfacet
facet normal -0.00042692 0.999941 0.0108244
outer loop
vertex 20 8.77033 9.21162
vertex 18.0545 8.82913 3.70227
vertex 18.063 8.76947 9.2146
endloop
endfacet
facet normal 0.00154398 -0.0108239 0.99994
outer loop
vertex 20 8.83 3.69927
vertex 20 10.5106 3.71746
vertex 18.0538 10.5097 3.72046
endloop
endfacet
facet normal 0.00154418 -0.0108236 0.99994
outer loop
vertex 20 8.83 3.69927
vertex 18.0538 10.5097 3.72046
vertex 18.0545 8.82913 3.70227
endloop
endfacet
facet normal 0.000426779 -0.999941 -0.0108244
outer loop
vertex 20 10.5106 3.71746
vertex 20 10.4509 9.22981
vertex 18.0538 10.5097 3.72046
endloop
endfacet
facet normal 0.000427248 -0.999941 -0.0108246
outer loop
vertex 20 10.4509 9.22981
vertex 18.0623 10.4501 9.23279
vertex 18.0538 10.5097 3.72046
endloop
endfacet
facet normal -7.13058e-09 -1 0.000832524
outer loop
vertex 12.5352 1.89135 3.67928
vertex 14.3167 1.89135 3.67929
vertex 10.3075 1.89663 10.0203
endloop
endfacet
facet normal 2.95476e-09 -1 0.000832527
outer loop
vertex 9.55309 1.89542 8.57466
vertex 12.5352 1.89135 3.67928
vertex 10.3075 1.89663 10.0203
endloop
endfacet
facet normal 3.07301e-08 -1 0.000832507
outer loop
vertex 6.6528 1.89135 3.67928
vertex 9.55309 1.89542 8.57466
vertex 8.58559 1.89666 10.0659
endloop
endfacet
facet normal 0 -1 0.000832517
outer loop
vertex 5.04034 1.89135 3.67928
vertex 6.6528 1.89135 3.67928
vertex 8.58559 1.89666 10.0659
endloop
endfacet
facet normal 3.54383e-08 -1 0.00083251
outer loop
vertex 9.55309 1.89542 8.57466
vertex 10.3075 1.89663 10.0203
vertex 8.58559 1.89666 10.0659
endloop
endfacet
facet normal 3.54928e-08 -1 0.000832512
outer loop
vertex 8.58559 1.89666 10.0659
vertex 10.3075 1.89663 10.0203
vertex 9.53519 1.89772 11.3348
endloop
endfacet
facet normal -5.71907e-08 -1 0.000832542
outer loop
vertex 10.3075 1.89663 10.0203
vertex 14.1008 1.90157 15.9551
vertex 12.4739 1.9016 15.9903
endloop
endfacet
facet normal 3.16339e-08 -1 0.00083251
outer loop
vertex 9.53519 1.89772 11.3348
vertex 10.3075 1.89663 10.0203
vertex 12.4739 1.9016 15.9903
endloop
endfacet
facet normal 6.74583e-09 -1 0.000832534
outer loop
vertex 8.58559 1.89666 10.0659
vertex 9.53519 1.89772 11.3348
vertex 6.90491 1.9016 15.9903
endloop
endfacet
facet normal 5.31307e-08 -1 0.000832547
outer loop
vertex 8.58559 1.89666 10.0659
vertex 6.90491 1.9016 15.9903
vertex 5.25763 1.90159 15.9841
endloop
endfacet
facet normal 0 0 1
outer loop
vertex 8.61633 5.51969 18
vertex 6.32219 4.42724 18
vertex 6.32219 4.00707 18
endloop
endfacet
facet normal 0 0 1
outer loop
vertex 14.1122 4.00707 18
vertex 8.61633 5.51969 18
vertex 6.32219 4.00707 18
endloop
endfacet
facet normal 0 -0 1
outer loop
vertex 14.1122 5.51969 18
vertex 8.61633 5.51969 18
vertex 14.1122 4.00707 18
endloop
endfacet
facet normal 0 0 1
outer loop
vertex 11.6164 14.8055 18
vertex 6.40622 16.3181 18
vertex 6.40622 14.8055 18
endloop
endfacet
facet normal 0 -0 1
outer loop
vertex 13.9273 16.3181 18
vertex 6.40622 16.3181 18
vertex 11.6164 14.8055 18
endloop
endfacet
facet normal 0 -0 1
outer loop
vertex 13.9273 16.3181 18
vertex 11.6164 14.8055 18
vertex 13.9273 15.8979 18
endloop
endfacet
facet normal 0 -0 1
outer loop
vertex 11.6164 14.8055 18
vertex 6.32219 4.42724 18
vertex 8.61633 5.51969 18
endloop
endfacet
facet normal 0 0 1
outer loop
vertex 11.6164 14.8055 18
vertex 8.61633 5.51969 18
vertex 13.9273 15.8979 18
endloop
endfacet
facet normal 0.999999 0.000443397 -0.00153946
outer loop
vertex 18.0623 10.4501 9.23279
vertex 18.0545 8.82913 3.70227
vertex 18.0538 10.5097 3.72046
endloop
endfacet
facet normal 0.999999 0.000443397 -0.00153946
outer loop
vertex 18.0623 10.4501 9.23279
vertex 18.063 8.76947 9.2146
vertex 18.0545 8.82913 3.70227
endloop
endfacet
facet normal 0.999999 0.000443402 -0.00153994
outer loop
vertex 18.0649 9.58599 10.6437
vertex 18.063 8.76947 9.2146
vertex 18.0623 10.4501 9.23279
endloop
endfacet
facet normal 0.999999 0.00044309 -0.00153957
outer loop
vertex 18.0745 6.4607 15.9884
vertex 18.0752 4.72969 15.9696
vertex 18.063 8.76947 9.2146
endloop
endfacet
facet normal 0.999999 0.00044288 -0.00153964
outer loop
vertex 18.0745 6.4607 15.9884
vertex 18.063 8.76947 9.2146
vertex 18.0649 9.58599 10.6437
endloop
endfacet
facet normal 0.999999 0.000444093 -0.00153952
outer loop
vertex 18.0719 12.5949 16.0548
vertex 18.0649 9.58599 10.6437
vertex 18.0623 10.4501 9.23279
endloop
endfacet
facet normal 0.999999 0.000443087 -0.0015392
outer loop
vertex 18.0711 14.3259 16.0735
vertex 18.0719 12.5949 16.0548
vertex 18.0623 10.4501 9.23279
endloop
endfacet
endsolid
